<svg width="68" height="68" viewBox="0 0 68 68" fill="none" xmlns="http://www.w3.org/2000/svg">
<path d="M16.9601 4.06408C13.0554 4.79455 9.44293 6.7469 6.50777 9.68205C3.90464 12.2985 2.49683 14.7024 1.50074 18.2617C1.04918 19.8953 0.916363 23.2555 1.24839 25.0086C1.87261 28.3422 3.34683 31.3703 7.14527 37.1742C7.98199 38.4492 8.68589 39.5649 8.72574 39.6446C8.7523 39.7375 8.59293 40.0961 8.38043 40.4547C7.11871 42.4867 7.42418 45.2094 9.05777 46.6836C9.97418 47.5071 10.9304 47.8391 12.3914 47.8391H13.5468V48.7555C13.5468 50.0703 13.932 51.0133 14.8617 51.943C15.8179 52.886 16.7742 53.2711 18.1953 53.2844C18.7398 53.2977 19.3242 53.2578 19.4703 53.2047C19.7359 53.125 19.7625 53.1782 19.8156 54.0946C19.9617 56.4321 21.6484 58.1719 23.9461 58.3977L24.8359 58.4774V58.9157C24.8359 59.5797 25.314 60.7086 25.832 61.3328C26.4164 62.0102 27.7046 62.661 28.6875 62.7672C29.6039 62.8735 30.9054 62.568 31.7421 62.05L32.3398 61.6782L33.4023 62.4617C35.0359 63.6836 35.939 64.0555 37.3867 64.1219C38.3562 64.1617 38.7148 64.1219 39.3125 63.8961C40.7734 63.3516 41.8093 61.8641 41.9421 60.1774L41.9953 59.3008H43.2836C44.3859 59.3008 44.6648 59.2477 45.3156 58.9422C47.0421 58.1453 47.9984 56.6711 48.0117 54.8383V53.8157L49.0742 53.8289C50.3492 53.8289 50.9601 53.6696 51.9296 53.0985C53.3109 52.2617 54.1078 50.7477 54.0945 48.9282L54.0812 47.9852L54.6656 48.0516C56.6843 48.2774 59.0085 46.9492 59.832 45.1164C60.5093 43.6157 60.4429 41.9422 59.6328 40.3617L59.2609 39.618L60.8148 37.2407C64.6531 31.3571 66.114 28.3422 66.7515 25.0086C67.0835 23.2555 66.9507 19.8953 66.4992 18.2617C65.5031 14.7024 64.0953 12.2985 61.4921 9.68205C58.464 6.65393 54.8117 4.72815 50.7875 4.03752C49.0343 3.74533 45.3953 3.8383 43.5359 4.23674C41.3046 4.71487 39.0734 5.41877 36.4968 6.45471L34 7.4508L31.5031 6.45471C28.9398 5.43205 26.7086 4.72815 24.464 4.23674C22.7507 3.86486 18.514 3.7719 16.9601 4.06408ZM21.7148 6.16252C23.9328 6.30862 27.7711 7.33127 30.7992 8.59299L31.2507 8.79221L30.0023 9.45627C28.0765 10.4922 20.7984 14.4367 19.457 15.1672C15.9906 17.0797 13.4937 19.2446 12.564 21.1172C12.2984 21.6617 12.0461 22.4055 12.0062 22.7774C11.7671 24.7563 13.1882 26.2438 15.7914 26.775C18.1953 27.2532 20.639 26.7352 26.4296 24.5305C30.2148 23.0961 31.9546 22.6578 34 22.6578C35.1554 22.6578 35.5273 22.711 36.125 22.9633C38.0773 23.7735 40.5211 25.7789 52.3281 36.2446C56.7375 40.1625 57.2953 40.7203 57.707 41.5969C58.5703 43.4297 57.6671 45.2625 55.7015 45.7008C55.0906 45.8336 54.8648 45.8336 54.1742 45.6344C53.032 45.3157 52.4742 44.9172 48.1445 41.2516C44.4656 38.1438 44.2664 37.9977 43.7351 37.9844C43.2968 37.9844 43.1242 38.0508 42.9117 38.3297C42.5531 38.7813 42.5531 39.3125 42.9117 39.7508C43.0578 39.95 44.625 41.318 46.3914 42.7922C50.5351 46.2719 51.0531 46.7633 51.4914 47.6664C52.2218 49.1539 51.7836 50.6414 50.4023 51.3719C50.1632 51.4914 49.6718 51.5844 49.1804 51.5844C47.6929 51.5844 46.5507 50.8539 42.1015 47.0422C41.039 46.1258 40.0429 45.3289 39.8836 45.2492C39.525 45.0899 38.9804 45.2227 38.6617 45.5414C38.4226 45.7805 38.4093 45.7672 38.3562 44.9039C38.2765 43.8149 37.8515 42.8188 37.214 42.1946C36.6429 41.65 35.8461 41.2117 35.2484 41.0922L34.8234 41.0125L35.2617 40.136C36.0984 38.4891 36.1382 36.9352 35.4078 35.5008C34.5445 33.8008 32.2336 32.6321 30.2015 32.8844L29.5109 32.9641L29.3648 32.2867C29.0328 30.7063 28.05 29.4711 26.589 28.7805C25.0882 28.0766 23.4281 28.1696 21.9273 29.0461C21.6086 29.2321 18.9257 31.3172 15.9773 33.6813C13.0156 36.0453 10.5586 37.9844 10.5187 37.9844C10.3992 37.9844 7.78277 34.0133 6.68043 32.1672C5.08668 29.511 3.95777 26.8813 3.53277 24.7828C3.26714 23.4946 3.26714 21.0641 3.53277 19.6563C4.68824 13.5469 9.97418 8.16799 16.4554 6.50784C17.5445 6.22893 19.5367 6.00315 20.2539 6.05627C20.4796 6.08284 21.1304 6.12268 21.7148 6.16252ZM51.5578 6.52111C56.4187 7.75627 60.7617 11.1696 62.9796 15.486C64.2015 17.8633 64.6796 19.7758 64.6796 22.2461C64.6796 25.9914 63.3914 29.1125 59.2875 35.368L57.6406 37.8782L57.2687 37.5594C57.0695 37.3867 55.0242 35.5805 52.7265 33.5352C49.0609 30.268 44.3593 26.1774 41.9023 24.0922C39.0203 21.6485 36.9617 20.5727 34.8367 20.3867C32.5523 20.1875 30.0687 20.7453 25.2875 22.525C21.3828 23.9727 20.0546 24.3844 18.4742 24.5836C16.6546 24.836 15.0343 24.4375 14.4367 23.6141C14.1843 23.2688 14.1711 23.2422 14.3968 22.6446C15.1539 20.6922 17.5312 18.7532 22.2461 16.2696C23.0562 15.8446 25.1015 14.7289 26.8015 13.786C34.7836 9.38987 39.4984 7.39768 44.1601 6.44143C46.4976 5.9633 49.4992 5.98986 51.5578 6.52111ZM25.5796 30.7992C26.6289 31.2774 27.3461 32.5391 27.1734 33.5617C27.0539 34.2125 25.8984 35.3547 21.3164 39.3657C15.0875 44.8242 13.9851 45.5813 12.3648 45.6078C10.8242 45.6211 9.73511 44.5055 9.86793 43.0711C9.96089 42.2211 10.4656 41.2516 11.1961 40.5344C12.3382 39.4321 22.8039 31.1578 23.4414 30.8657C24.2382 30.4805 24.8492 30.4672 25.5796 30.7992ZM32.2734 35.5008C33.9734 36.3774 34.1062 38.1703 32.6187 40.0164C31.6226 41.2649 21.9273 49.5125 20.4265 50.3891C20.1078 50.575 19.5101 50.8141 19.0718 50.9203C16.6812 51.5446 15.0476 49.5125 16.15 47.3078C16.5218 46.5508 16.6281 46.4446 21.1171 42.5532C22.6179 41.2516 24.9554 39.1797 26.3234 37.9578C29.3382 35.2617 29.75 35.0227 31.0117 35.1289C31.3703 35.1688 31.9414 35.3282 32.2734 35.5008ZM35.0625 43.4696C36.1648 44.0539 36.3906 45.1032 35.7265 46.4446C35.4078 47.0953 34.7437 47.8125 32.1804 50.3492C27.5054 54.9578 26.1507 56.0071 24.7031 56.1532C23.8796 56.2328 23.0031 55.8477 22.4984 55.1836C22.1929 54.7719 22.1132 54.5196 22.0734 53.8024C22.007 52.4742 22.4187 51.8766 24.8359 49.8977C25.8984 49.0344 27.9039 47.3477 29.2851 46.1657C32.114 43.7485 32.3 43.6024 33.0968 43.3633C33.9336 43.0977 34.425 43.1242 35.0625 43.4696ZM39.1265 47.5203C39.4851 47.8391 40.7601 48.9149 41.9687 49.911C45.382 52.7399 45.7273 53.1914 45.7406 54.6657C45.7539 55.3164 45.6875 55.5688 45.3953 56.0071C44.6648 57.1227 43.1109 57.375 41.6234 56.618C40.9195 56.2727 39.3125 55.1703 39.3125 55.0375C39.3125 55.011 39.5117 54.7188 39.764 54.4C40.6539 53.2313 40.9195 51.6242 40.4414 50.2032C40.1625 49.3532 38.9937 48.0914 38.25 47.8125L37.7851 47.6532L38.0507 46.8164L38.3164 45.993L38.3961 46.4711C38.4625 46.8164 38.6617 47.1086 39.1265 47.5203ZM37.3203 49.9641C38.4226 50.5219 38.7281 51.6641 38.0773 52.7664C37.6523 53.4836 33.4554 57.7469 31.875 59.0617C30.4671 60.2305 30.0023 60.4696 29.1257 60.4828C28.3554 60.4961 27.8906 60.2305 27.3859 59.4867C27.1336 59.1149 27.0804 58.9157 27.1336 58.3711C27.1601 58.0125 27.2664 57.6938 27.3593 57.6672C27.9836 57.4547 32.0343 53.8688 34.9296 50.9469C35.7 50.15 36.2843 49.6719 36.457 49.6719C36.6164 49.6719 37.0015 49.8047 37.3203 49.9641ZM38.5953 57.4813C39.6046 58.5039 39.9632 59.8985 39.4586 60.8282C38.6882 62.2891 36.8554 62.236 34.85 60.6821L34.1726 60.1641L35.9125 58.4508C37.8382 56.5516 37.7187 56.5914 38.5953 57.4813Z" fill="#B3BC35"/>
</svg>
