<svg width="75" height="68" viewBox="0 0 75 68" fill="none" xmlns="http://www.w3.org/2000/svg">
<mask id="mask0_59_128" style="mask-type:alpha" maskUnits="userSpaceOnUse" x="0" y="0" width="75" height="68">
<path d="M74.3437 0.549805H0.773438V67.5508H74.3437V0.549805Z" fill="#D9D9D9"/>
</mask>
<g mask="url(#mask0_59_128)">
<path fill-rule="evenodd" clip-rule="evenodd" d="M70.0588 31.5588L56.6265 8.2934C55.5699 6.46328 53.6172 5.33588 51.504 5.33588H24.6393C22.5261 5.33588 20.5734 6.46328 19.5168 8.2934L6.08445 31.5588C5.02783 33.389 5.02783 35.6438 6.08445 37.4739L19.5168 60.7393C20.5734 62.5694 22.5261 63.6968 24.6393 63.6968H51.504C53.6172 63.6968 55.5699 62.5694 56.6265 60.7393L70.0588 37.4739C71.1155 35.6438 71.1155 33.3889 70.0588 31.5588ZM58.3341 7.30756C56.9252 4.8674 54.3216 3.3642 51.504 3.3642H24.6393C21.8217 3.3642 19.2181 4.8674 17.8092 7.30756L4.37694 30.573C2.9681 33.0132 2.9681 36.0196 4.37694 38.4597L17.8092 61.7252C19.2181 64.1653 21.8217 65.6685 24.6393 65.6685H51.504C54.3216 65.6685 56.9252 64.1653 58.3341 61.7252L71.7664 38.4597C73.1752 36.0196 73.1752 33.0131 71.7664 30.573L58.3341 7.30756Z" fill="#B3BC35"/>
<path fill-rule="evenodd" clip-rule="evenodd" d="M38.0679 19.0026C32.5255 19.0026 27.4041 21.9594 24.6329 26.7593C21.8617 31.5592 21.8617 37.4728 24.6329 42.2727C27.4041 47.0726 32.5255 50.0294 38.0679 50.0294C43.6103 50.0294 48.7317 47.0726 51.5029 42.2727C54.2741 37.4728 54.2741 31.5592 51.5029 26.7593C48.7317 21.9594 43.6103 19.0026 38.0679 19.0026ZM53.0904 25.8428C49.9917 20.4758 44.2652 17.1696 38.0679 17.1696C31.8706 17.1696 26.1441 20.4758 23.0454 25.8428C19.9468 31.2098 19.9468 37.8222 23.0454 43.1892C26.1441 48.5562 31.8706 51.8624 38.0679 51.8624C44.2652 51.8624 49.9917 48.5562 53.0904 43.1892C56.189 37.8222 56.189 31.2098 53.0904 25.8428Z" fill="#B3BC35"/>
</g>
</svg>
