<svg width="50" height="50" viewBox="0 0 50 50" fill="none" xmlns="http://www.w3.org/2000/svg">
<path d="M24.4824 2.02148C24.4043 2.11914 23.291 4.30664 22.0312 6.875C20.7617 9.45312 19.707 11.5723 19.6973 11.582C19.6875 11.6016 17.3438 11.9434 14.502 12.3633C11.6504 12.7734 9.22852 13.1445 9.10156 13.1934C8.84766 13.291 8.65234 13.7207 8.73047 14.0234C8.75977 14.1406 10.4883 15.8984 12.5684 17.9199C14.6582 19.9512 16.3672 21.6504 16.3867 21.6895C16.4062 21.7285 16.0156 24.0918 15.5273 26.9531C15.0391 29.8047 14.668 32.2266 14.6973 32.334C14.7949 32.6367 15.0391 32.8125 15.3613 32.8125C15.5566 32.8125 16.5234 32.3633 18.2031 31.4844C19.6094 30.752 20.8301 30.1074 20.9277 30.0586C21.1328 29.9512 21.1523 29.834 20.6543 31.8652C20.2246 33.6133 19.668 35.2734 19.0723 36.543L18.623 37.5H16.0156C13.6133 37.5 13.3984 37.5098 13.252 37.6758C13.1055 37.8418 13.0859 38.2227 13.0859 41.1426V44.4336H11.1133C10.0195 44.4336 9.08203 44.4727 9.02344 44.5117C8.75977 44.6875 8.69141 45.0586 8.69141 46.2891C8.69141 47.5195 8.75977 47.8906 9.02344 48.0664C9.08203 48.1055 16.2695 48.1445 25 48.1445C33.7305 48.1445 40.918 48.1055 40.9766 48.0664C41.2402 47.8906 41.3086 47.5195 41.3086 46.2891C41.3086 45.0586 41.2402 44.6875 40.9766 44.5117C40.918 44.4727 39.9805 44.4336 38.8965 44.4336H36.9141V41.1328C36.9141 38.0469 36.9043 37.8125 36.7383 37.666C36.582 37.5195 36.2402 37.5 33.9648 37.5H31.377L30.9277 36.543C30.332 35.2734 29.7754 33.6133 29.3457 31.8652C28.8477 29.834 28.8672 29.9512 29.0723 30.0586C29.1699 30.1074 30.3906 30.752 31.7969 31.4844C33.4668 32.3535 34.4434 32.8125 34.6484 32.8125C34.9707 32.8125 35.2051 32.6367 35.3027 32.334C35.332 32.2266 34.9609 29.8047 34.4727 26.9531C33.9844 24.0918 33.5938 21.7285 33.6133 21.6895C33.6328 21.6406 35.3418 19.9512 37.4316 17.9199C39.5117 15.8887 41.2402 14.1406 41.2695 14.0234C41.3477 13.7207 41.1523 13.291 40.8984 13.1934C40.7715 13.1543 38.3496 12.7734 35.498 12.3535C32.6562 11.9434 30.3125 11.5918 30.3027 11.582C30.2832 11.5723 29.2383 9.45312 27.9688 6.875C26.709 4.30664 25.5957 2.11914 25.5176 2.02148C25.4199 1.92383 25.2148 1.85547 25 1.85547C24.7852 1.85547 24.5801 1.92383 24.4824 2.02148ZM27.1387 8.55469C28.291 10.8887 29.3164 12.8418 29.4043 12.8906C29.4922 12.9395 31.582 13.2715 34.043 13.623C36.5137 13.9844 38.6035 14.2969 38.7012 14.3359C38.8477 14.3945 38.2617 15.0195 35.5078 17.7051C33.6523 19.5215 32.1094 21.084 32.0801 21.1914C32.0508 21.2891 32.373 23.4375 32.8125 25.957C33.2422 28.4863 33.5938 30.5859 33.5938 30.6445C33.5938 30.6934 31.7285 29.7559 29.4434 28.5547C26.8262 27.1777 25.1855 26.3672 25.0098 26.3672C24.834 26.3672 23.1836 27.1777 20.5664 28.5547C18.2812 29.7559 16.4062 30.6934 16.4062 30.625C16.4062 30.5664 16.7578 28.4766 17.1875 25.9766C17.627 23.4766 17.9492 21.3379 17.9199 21.2305C17.9004 21.1133 16.3574 19.5312 14.4922 17.7148C11.748 15.0195 11.1523 14.3945 11.2988 14.3359C11.3965 14.2969 13.4863 13.9844 15.9473 13.6328C18.4082 13.2812 20.498 12.9492 20.5957 12.9004C20.6836 12.8516 21.6992 10.8984 22.8516 8.55469C24.0039 6.21094 24.9707 4.29688 25 4.29688C25.0293 4.29688 25.9961 6.21094 27.1387 8.55469ZM26.1133 28.4961C26.6992 28.7988 27.2168 29.1211 27.2559 29.1992C27.2949 29.2773 27.4609 30.0488 27.6172 30.9082C28.0176 33.0078 28.7793 35.4102 29.668 37.4219C29.6875 37.4707 27.5879 37.5 25 37.5C22.4121 37.5 20.3125 37.4707 20.332 37.4219C21.2207 35.4102 21.9824 33.0078 22.3828 30.9082C22.5391 30.0488 22.7051 29.2773 22.7441 29.1992C22.8125 29.082 24.8438 27.9395 25 27.9395C25.0293 27.9395 25.5273 28.1836 26.1133 28.4961ZM35.5469 41.6992V44.4336H25H14.4531V41.6992V38.9648H25H35.5469V41.6992ZM39.8438 46.2891V46.7773H25H10.1562V46.2891V45.8008H25H39.8438V46.2891Z" fill="#B3BC35"/>
</svg>
