<svg width="39" height="39" viewBox="0 0 39 39" fill="none" xmlns="http://www.w3.org/2000/svg">
<g clip-path="url(#clip0_82_118)">
<path d="M1.95764 0.083889C1.57678 0.304787 1.59963 -0.830173 1.59963 19.5001C1.59963 39.9142 1.57678 38.7106 1.97287 38.9239C2.17853 39.0306 36.8215 39.0306 37.0272 38.9239C37.4233 38.7106 37.4004 39.5104 37.4004 24.3751C37.4004 12.02 37.3852 10.329 37.2862 10.131C37.1338 9.84151 36.9586 9.7501 36.5092 9.7501H36.1512L32.7006 13.1931L29.25 16.6437V13.4216V10.1919L29.0291 9.971C28.8387 9.78819 28.7397 9.7501 28.435 9.7501H28.0617L23.8037 13.2997L19.5381 16.8569L19.5 13.4825L19.4619 10.1157L19.2487 9.93291C19.0887 9.7958 18.944 9.7501 18.6697 9.7501H18.3117L14.0537 13.2997L9.7881 16.8569L9.75002 8.60752L9.71193 0.365723L9.49865 0.182911L9.28537 9.91821e-05H5.69006C3.38967 9.91821e-05 2.04904 0.0305672 1.95764 0.083889ZM8.08947 10.3519L8.11232 19.0354L8.33322 19.264C8.52365 19.462 8.61506 19.5001 8.91974 19.5001C9.35392 19.5001 8.88928 19.8581 14.0918 15.5163L17.7862 12.4313L17.8242 15.7372L17.8623 19.0354L18.0832 19.264C18.2737 19.462 18.3651 19.5001 18.6697 19.5001C19.1039 19.5001 18.6393 19.8581 23.8418 15.5163L27.5362 12.4313L27.5742 15.7372L27.6123 19.0354L27.8332 19.264C28.0313 19.4696 28.1151 19.5001 28.4426 19.5001H28.8235L32.274 16.0571L35.7246 12.6065V24.9692V37.3243H19.5H3.27541V19.5001V1.67588H5.67482H8.07424L8.08947 10.3519Z" fill="#B3BC35"/>
</g>
<defs>
<clipPath id="clip0_82_118">
<rect width="39" height="39" fill="white"/>
</clipPath>
</defs>
</svg>
