<svg width="75" height="68" viewBox="0 0 75 68" fill="none" xmlns="http://www.w3.org/2000/svg">
<mask id="mask0_59_135" style="mask-type:alpha" maskUnits="userSpaceOnUse" x="0" y="0" width="75" height="68">
<path d="M74.0078 0.549805H0.4375V67.5508H74.0078V0.549805Z" fill="#D9D9D9"/>
</mask>
<g mask="url(#mask0_59_135)">
<path d="M34.8963 4.15235L39.6214 16.9217C41.7484 22.6698 46.2804 27.2018 52.0285 29.3288L64.7978 34.0538C65.6684 34.376 65.6684 35.6074 64.7978 35.9295L52.0285 40.6546C46.2804 42.7816 41.7484 47.3136 39.6214 53.0617L34.8963 65.831C34.5742 66.7016 33.3428 66.7016 33.0206 65.831L28.2956 53.0617C26.1686 47.3136 21.6366 42.7816 15.8885 40.6546L3.11915 35.9295C2.24853 35.6074 2.24853 34.376 3.11914 34.0538L15.8885 29.3288C21.6366 27.2018 26.1686 22.6698 28.2956 16.9217L33.0206 4.15235C33.3428 3.28173 34.5742 3.28173 34.8963 4.15235Z" stroke="#B3BC35" stroke-width="2"/>
<path d="M52.0706 11.5833C56.2054 10.0533 59.4654 6.79324 60.9954 2.65848C61.1276 2.30102 61.6332 2.30102 61.7655 2.65848C63.2955 6.79324 66.5555 10.0533 70.6903 11.5833C71.0477 11.7155 71.0477 12.2211 70.6903 12.3534C66.5555 13.8834 63.2955 17.1434 61.7655 21.2782C61.6332 21.6356 61.1276 21.6356 60.9954 21.2782C59.4654 17.1434 56.2054 13.8834 52.0706 12.3534C51.7131 12.2211 51.7131 11.7155 52.0706 11.5833Z" stroke="#B3BC35" stroke-width="2"/>
</g>
</svg>
