<svg width="45" height="45" viewBox="0 0 45 45" fill="none" xmlns="http://www.w3.org/2000/svg">
<path d="M18.8262 1.31829C14.748 1.77533 11.3818 4.68451 10.3096 8.67474C10.0986 9.45697 10.0723 9.68548 10.0723 11.162C10.0723 12.6474 10.0986 12.8583 10.3096 13.6669C10.5996 14.7392 11.3379 16.2685 11.9619 17.0947C12.876 18.29 14.2207 19.415 15.5127 20.0654C17.5342 21.0761 20.1182 21.331 22.4121 20.7421C26.1387 19.7929 28.9863 16.6816 29.6631 12.8495C30.5771 7.60248 27.1055 2.5224 21.8848 1.46771C21.0322 1.29193 19.6436 1.22161 18.8262 1.31829ZM22.0869 3.46283C26.4814 4.76361 28.9248 9.36908 27.501 13.6669C26.666 16.1718 24.6973 18.0702 22.1045 18.8613C21.3838 19.081 21.1816 19.1074 19.9072 19.1074C18.6064 19.1161 18.4395 19.0986 17.71 18.8701C16.6641 18.5361 15.5654 17.956 14.7832 17.3056C12.7266 15.6005 11.6016 12.8232 11.9443 10.2392C12.4189 6.73236 14.8623 4.09564 18.3779 3.29583C19.2744 3.09369 21.1113 3.17279 22.0869 3.46283Z" fill="#B3BC35"/>
<path d="M8.82422 20.6629C7.45313 21.6033 6.66211 22.2713 5.51953 23.449C2.97949 26.077 1.34473 29.0916 0.483398 32.7479C0.114258 34.3035 0 35.5076 0 37.9334V40.1658H14.2647H28.5293L29.0918 40.7987C32.168 44.2352 37.7139 44.7098 41.4229 41.8621C42.9873 40.6492 44.0947 39.0321 44.71 37.0281C44.9297 36.2987 44.9473 36.1492 44.9473 34.5408C44.9473 32.9324 44.9297 32.783 44.71 32.036C43.5938 28.3358 40.6055 25.8221 36.791 25.3914L35.8682 25.286L35.165 24.4334C33.9785 22.9832 31.7022 21.0145 30.1553 20.1004L29.9004 19.951L29.3994 20.619C27 23.8094 23.7041 25.5057 19.9072 25.5057C16.6289 25.5057 13.7197 24.2488 11.4434 21.8494C11.0479 21.4276 10.5469 20.8299 10.3184 20.5135C10.0986 20.2059 9.90527 19.951 9.89649 19.951C9.87891 19.951 9.4043 20.2762 8.82422 20.6629ZM12.2607 25.0662C14.458 26.534 16.7607 27.2899 19.3887 27.3953C23.1768 27.5535 26.7012 26.1824 29.4258 23.493C29.9356 22.992 30.3662 22.5877 30.3838 22.5877C30.6387 22.5877 33.7236 25.4705 33.6006 25.5848C33.5566 25.6199 33.293 25.7078 33.0029 25.7957C30.7002 26.4549 28.5908 28.3094 27.501 30.6385C26.4199 32.9324 26.3672 35.8856 27.3691 38.1619C27.4395 38.3113 26.7979 38.3201 14.6338 38.3201H1.81934L1.87207 36.8524C1.9248 35.2176 2.07422 34.1365 2.46094 32.6688C3.41895 28.951 5.66895 25.5321 8.77149 23.0535L9.41309 22.535L10.3975 23.5106C10.9863 24.0819 11.7422 24.7147 12.2607 25.0662ZM38.0303 27.5711C40.4385 28.3621 42.2051 30.2078 42.9082 32.6776C43.1631 33.574 43.1807 35.4285 42.9434 36.2987C42.0029 39.744 38.9619 41.9852 35.4639 41.8094C34.3828 41.7567 33.5039 41.5369 32.6689 41.1238C30.1025 39.8319 28.5469 37.3533 28.5469 34.5408C28.5469 32.5369 29.2852 30.7528 30.6914 29.3817C31.4121 28.6697 31.7197 28.45 32.5195 28.0457C33.8027 27.3953 34.4971 27.2459 36.0352 27.2811C37.0723 27.3074 37.3272 27.3426 38.0303 27.5711Z" fill="#B3BC35"/>
<path d="M37.002 33.5303L34.2334 36.2988L33.0029 35.0684L31.7725 33.8379L31.1133 34.4971L30.4541 35.1562L32.3701 37.0723L34.2773 38.9795L37.749 35.5078L41.2207 32.0361L40.5879 31.4033C40.2363 31.0518 39.9111 30.7617 39.8584 30.7617C39.8145 30.7617 38.5225 32.0098 37.002 33.5303Z" fill="#B3BC35"/>
</svg>
