<svg width="50" height="50" viewBox="0 0 50 50" fill="none" xmlns="http://www.w3.org/2000/svg">
<path d="M18.75 4.89258C17.6074 5.11719 16.4942 5.99609 16.0254 7.06055C15.8789 7.39258 15.4297 8.62305 15.0391 9.78516L14.3164 11.9141H11.377C8.83791 11.9141 8.33987 11.9434 7.75393 12.0898C5.80081 12.6074 4.30666 13.8379 3.41799 15.6738C2.71487 17.1289 2.7344 16.709 2.7344 28.584C2.7344 40.5469 2.7051 39.9316 3.47659 41.5039C4.3262 43.2129 5.8887 44.4727 7.81252 44.9902C8.40823 45.1562 9.52151 45.166 25 45.166C40.4492 45.166 41.5918 45.1562 42.1875 45C44.0918 44.4824 45.6836 43.1934 46.5235 41.5039C47.295 39.9316 47.2657 40.5469 47.2657 28.584C47.2657 19.2676 47.2461 17.8711 47.1094 17.2168C46.5918 14.7168 44.7168 12.7441 42.2461 12.0898C41.6602 11.9434 41.1621 11.9141 38.6231 11.9141H35.6836L34.9219 9.63867C34.4922 8.39844 34.043 7.1582 33.916 6.89453C33.4278 5.91797 32.3145 5.09766 31.1621 4.88281C30.5176 4.76562 19.3848 4.76562 18.75 4.89258ZM31.2696 7.24609C31.4746 7.36328 31.7383 7.59766 31.836 7.77344C31.9434 7.93945 32.3047 8.93555 32.6563 9.99023L33.2813 11.9141H25H16.709L17.3926 9.89258C18.0664 7.85156 18.2129 7.57812 18.7989 7.2168C19.0723 7.04102 19.4043 7.03125 24.9903 7.03125H30.8789L31.2696 7.24609ZM41.8262 14.2578C43.0957 14.6484 44.0918 15.5469 44.6973 16.8457C44.9317 17.3633 44.9707 17.5684 45 18.5547L45.0293 19.6777L44.2969 20.4883C41.6309 23.4082 38.6133 25.0781 34.8438 25.7422C34.1504 25.8594 33.0078 25.9082 30.0098 25.9473L26.0742 25.9961V24.9121C26.0742 23.8574 26.0645 23.8281 25.791 23.5156C25.5371 23.2324 25.4492 23.1934 25 23.1934C24.5508 23.1934 24.4629 23.2324 24.209 23.5156C23.9356 23.8281 23.9258 23.8574 23.9258 24.9023V25.9766H20.293C16.4453 25.9766 15.3516 25.8887 13.7891 25.498C12.5489 25.1758 11.6797 24.8438 10.3516 24.1602C8.46682 23.1934 6.77737 21.8457 5.52737 20.3223L4.98049 19.6582V18.7695C4.98049 16.9727 5.80081 15.5176 7.32424 14.6191C8.31057 14.043 7.3926 14.0723 25.0098 14.0723C40.9473 14.0625 41.2012 14.0625 41.8262 14.2578ZM6.39651 24.2871C7.79299 25.4102 10.0196 26.6113 11.8653 27.2266C14.3067 28.0371 15.8887 28.2129 20.7813 28.2227H23.9258V29.3066C23.9258 30.3711 23.9258 30.3906 24.209 30.6738C24.4531 30.918 24.5703 30.957 25 30.957C25.4297 30.957 25.5469 30.918 25.791 30.6738C26.0742 30.3906 26.0742 30.3711 26.0742 29.3066V28.2227H29.2285C32.8223 28.2129 34.4629 28.1152 35.9278 27.8223C39.0821 27.1875 42.1973 25.6348 44.4532 23.5449L45.0196 23.0273V31.084C45.0196 38.7207 45.0098 39.1699 44.834 39.7363C44.3848 41.1816 43.1446 42.4023 41.6992 42.8125C41.211 42.959 39.502 42.9688 24.7559 42.9492L8.34963 42.9199L7.58791 42.5586C6.58206 42.0703 5.87893 41.3672 5.39065 40.3613L5.02932 39.5996L5.00002 31.2988L4.98049 22.998L5.43948 23.4473C5.70315 23.6914 6.13284 24.0723 6.39651 24.2871Z" fill="#B3BC35"/>
</svg>
