<svg width="194" height="39" viewBox="0 0 194 39" fill="none" xmlns="http://www.w3.org/2000/svg">
<g clip-path="url(#clip0_43_16)">
<path d="M67.8972 0.305328H83.298V2.27615H76.6977V16.9046H74.4976V2.27615H67.8972V0.305328Z" fill="white"/>
<path d="M88.2831 13.2128C89.4807 14.5174 91.1795 15.2669 93.1011 15.2669C94.9949 15.2669 96.6659 14.5452 97.8634 13.2406C98.9495 12.047 99.6179 10.4925 99.6179 8.60498C99.6179 6.68968 98.9217 5.07972 97.8355 3.94164C96.638 2.69253 94.967 1.94306 93.1011 1.94306C91.2073 1.94306 89.4807 2.72028 88.2831 3.9694C87.197 5.16299 86.5286 6.71744 86.5286 8.60498C86.5286 10.4925 87.197 12.0192 88.2831 13.2128ZM99.3951 2.47046C100.983 4.05267 101.874 6.21779 101.874 8.60498C101.874 10.9644 101.038 13.074 99.4787 14.6007C97.9191 16.2384 95.719 17.21 93.1011 17.21C90.3997 17.21 88.116 16.1274 86.5843 14.4619C85.164 12.9075 84.3007 10.8256 84.3007 8.60498C84.3007 6.27331 85.164 4.19146 86.64 2.66477C88.1996 0.999288 90.4554 0 93.1011 0C95.6354 0 97.8355 0.916014 99.3951 2.47046Z" fill="white"/>
<path d="M107.973 0.305328L114.35 9.21565L120.644 0.305328H123.318V16.9046H121.09V3.33095H120.923L114.573 12.269H113.877L107.527 3.33095H107.36V16.9046H105.243V0.305328H107.973Z" fill="white"/>
<path d="M130.587 13.2683C131.784 14.4897 133.455 15.2392 135.349 15.2392C137.577 15.2392 139.081 14.4064 140.501 13.1851L141.838 14.684C140.055 16.4328 138.134 17.2377 135.377 17.2377C132.814 17.2377 130.67 16.294 129.11 14.7395C127.467 13.1851 126.576 11.0199 126.576 8.57724C126.576 6.16229 127.495 4.05268 129.055 2.52599C130.614 0.971543 132.814 0.027771 135.377 0.027771C138.162 0.027771 140.055 0.860511 141.838 2.52599L140.445 4.02492C139.025 2.77581 137.549 2.02635 135.349 2.02635C133.483 2.02635 131.895 2.69254 130.698 3.88613C129.5 5.07973 128.776 6.68969 128.776 8.605C128.776 10.5481 129.473 12.1303 130.587 13.2683Z" fill="white"/>
<path d="M164.841 13.7957L175.48 0.305328H177.68V16.9046H175.564V3.44198L164.869 16.9046H162.669V0.305328H164.841V13.7957Z" fill="white"/>
<path d="M180.883 0.305328H193.582V2.35942H183.139V7.1338H192.468V9.16013H183.139V14.906H194V16.9046H180.883V0.305328Z" fill="white"/>
<path d="M93.9087 35.8633L104.547 22.373H106.775V39H104.631V25.5096L93.9366 39H91.7365V22.373H93.9087V35.8633Z" fill="white"/>
<path d="M137.27 30.284C136.574 29.5345 135.572 29.0349 133.984 29.0349H128.748V37.0292H134.123C135.544 37.0292 136.463 36.5573 137.103 35.9189C137.855 35.2249 138.245 34.1701 138.245 32.9765C138.273 31.9495 137.939 30.9779 137.27 30.284ZM138.802 37.2512C137.688 38.3616 136.129 39 134.123 39H126.521V22.373H128.776V27.0641H134.123C136.24 27.0641 137.855 27.758 138.969 28.9516C139.944 30.0342 140.557 31.3666 140.557 33.0043C140.557 34.7253 139.888 36.1687 138.802 37.2512Z" fill="white"/>
<path d="M143.258 22.373H155.985V24.427H145.542V29.2292H154.871V31.2555H145.542V36.9737H156.403V39H143.258V22.373Z" fill="white"/>
<path d="M167.097 32.2548C168.518 32.2548 169.492 31.7552 170.133 31.0057C170.718 30.2562 171.108 29.3125 171.108 28.3409C171.108 27.2584 170.773 26.3701 170.133 25.6762C169.437 24.8712 168.406 24.3715 166.847 24.3715H161.472V32.227H167.097V32.2548ZM171.581 32.5324C170.439 33.6149 168.907 34.2534 166.902 34.2534H161.472V39H159.16V22.373H166.902C169.13 22.373 170.857 23.1502 171.999 24.5658C172.862 25.5651 173.363 26.842 173.363 28.3687C173.363 30.0342 172.667 31.4498 171.581 32.5324Z" fill="white"/>
<path d="M194 39H191.744V22.373H194V39ZM186.787 30.284C186.091 29.5345 185.116 29.0349 183.556 29.0349H178.321V37.0292H183.724C185.088 37.0292 186.035 36.5573 186.676 35.9189C187.428 35.2249 187.817 34.1701 187.817 32.9765C187.817 31.894 187.483 31.0335 186.787 30.284ZM188.347 37.2512C187.233 38.3616 185.673 39 183.696 39H176.065V22.373H178.321V27.0641H183.696C185.784 27.0641 187.372 27.7858 188.486 28.9794C189.488 30.0064 190.101 31.3666 190.101 33.0043C190.101 34.7253 189.433 36.1687 188.347 37.2512Z" fill="white"/>
<path d="M81.5992 35.2249H79.3434V26.1758H80.8194H86.445V30.8114C86.4172 32.0605 85.9716 33.0875 85.1918 33.8648C84.3563 34.6975 83.1866 35.2249 81.5992 35.2249ZM77.1433 35.2249H75.6116H70.0695V30.8391V30.8114V30.6171C70.0974 29.3402 70.5708 28.2577 71.3506 27.4804C72.2139 26.6199 73.3836 26.1758 74.9153 26.1758H77.1711V35.2249H77.1433ZM86.445 24.1495H80.8194H80.708H79.3434V22.373H77.1433V24.1495H74.6925C72.4924 24.1495 70.8214 24.9545 69.6239 26.2036C68.5656 27.3694 67.9251 28.8683 67.8694 30.5616V35.2249V37.279H77.1433V38.9722H79.3434V37.279H81.7942C83.9386 37.279 85.5817 36.5295 86.7792 35.3359C87.9489 34.1701 88.6173 32.5879 88.6452 30.8391V26.1758V24.1495H86.445Z" fill="white"/>
<path d="M123.624 22.373H121.786H115.381L108.307 39H110.702L117.024 24.3438H121.285V39H123.624V22.373Z" fill="white"/>
<path d="M154.844 6.74519L158.603 0.305328H156.097L152.922 5.7459C152.616 6.24554 152.309 6.57864 152.003 6.77294C151.641 6.96725 151.223 7.05052 150.555 7.05052H147.658V0.305328H145.43V16.9046H147.658V9.0491H150.666C151.195 9.0491 151.669 9.02134 152.114 8.88255L157.489 16.9046H160.107L153.952 7.91102C154.37 7.49465 154.593 7.18931 154.844 6.74519Z" fill="white"/>
<path d="M53.3876 13.3238C53.3876 15.8221 52.385 18.2092 50.6305 19.9858L48.5418 22.0676V9.96512H16.9882L21.8341 5.13522H53.3876V13.3238ZM43.6681 24.4826H14.5653V14.795H43.6681V24.4826ZM36.3994 34.1701H4.84582V25.9815C4.84582 23.4833 5.84841 21.0961 7.60293 19.3196L9.69164 17.2377V29.3124H41.2452L36.3994 34.1701ZM19.4111 0.305328L9.69164 9.96512L3.4255 16.2384C1.22538 18.4313 0 21.3737 0 24.4826V39H38.8223L54.8079 23.0669C57.008 20.874 58.2334 17.9317 58.2334 14.8228V0.305328H19.4111Z" fill="white"/>
</g>
<defs>
<clipPath id="clip0_43_16">
<rect width="194" height="39" fill="white"/>
</clipPath>
</defs>
</svg>
