<svg width="180" height="180" viewBox="0 0 180 180" fill="none" xmlns="http://www.w3.org/2000/svg">
<circle opacity="0.5" cx="90" cy="90" r="90" fill="white"/>
<circle cx="90.0001" cy="90.0001" r="62.8302" fill="#52622B"/>
<g clip-path="url(#clip0_127_9)">
<path d="M90.849 130.755C112.888 130.755 130.755 112.888 130.755 90.849C130.755 68.8097 112.888 50.9434 90.849 50.9434C68.8097 50.9434 50.9434 68.8097 50.9434 90.849C50.9434 112.888 68.8097 130.755 90.849 130.755Z" fill="#B3BC35"/>
<path d="M103.238 88.0427L86.4682 76.5433C85.7153 75.9957 84.8939 75.7219 84.2778 75.7219C82.9773 75.7219 82.2244 76.7487 82.2244 78.3914V103.238C82.2244 104.95 82.9773 105.908 84.2094 105.908C84.8939 105.908 85.6468 105.634 86.3997 105.086L103.17 93.5871C104.265 92.8341 104.881 91.8758 104.881 90.7807C104.881 89.6855 104.333 88.7956 103.238 88.0427Z" fill="white"/>
</g>
<defs>
<clipPath id="clip0_127_9">
<rect width="79.8113" height="79.8113" fill="white" transform="translate(50.9434 50.9434)"/>
</clipPath>
</defs>
</svg>
